<svg width="333" height="82" viewBox="0 0 333 82" fill="none" xmlns="http://www.w3.org/2000/svg">
<path d="M175.508 82C172.451 82 169.973 79.5217 169.973 76.4648V30.3198C169.973 28.6702 168.636 27.333 166.986 27.333C165.337 27.333 164 28.6702 164 30.3198V76.4609C164 79.5178 161.521 82 158.464 82H140.25C137.193 82 134.714 79.5178 134.714 76.4609V21.8389C134.714 21.8254 134.713 21.8114 134.713 21.7979V5.85742C134.713 5.84512 134.714 5.8326 134.714 5.82031V5.53906C134.714 2.48219 137.193 0 140.25 0H174.879C187.47 0 197.677 10.2071 197.677 22.7979C197.677 23.1711 197.654 23.5448 197.666 23.9179C197.673 24.1531 197.677 24.3891 197.677 24.626V76.4648C197.677 79.5217 195.199 82 192.142 82H175.508Z" fill="#1CB0F6"/>
<path d="M108.152 0C105.095 0 102.617 2.47828 102.617 5.53516V51.6797C102.617 53.3295 101.28 54.667 99.6299 54.667C97.98 54.667 96.6426 53.3295 96.6426 51.6797V5.53809C96.6423 2.48141 94.1642 0 91.1074 0H72.8916C69.835 0.000209095 67.3577 2.48154 67.3574 5.53809V76.4609C67.3574 79.5177 69.8349 81.9998 72.8916 82H107.523C120.114 82 130.321 71.7929 130.321 59.2021C130.321 58.8302 130.298 58.4578 130.31 58.086C130.317 57.8495 130.321 57.6122 130.321 57.374V5.53516C130.321 2.47828 127.843 0 124.786 0H108.152Z" fill="#1CB0F6"/>
<path d="M314.82 0C324.524 0 332.391 7.86693 332.391 17.5713V64.4287C332.391 74.1329 324.524 82 314.82 82H286.999C277.294 81.9999 269.428 74.1328 269.427 64.4287V17.5713C269.427 7.86699 277.294 8.59613e-05 286.999 0H314.82ZM301.641 27.333C300.024 27.3332 298.713 28.6445 298.713 30.2617V51.7383C298.714 53.3554 300.024 54.6658 301.641 54.666C303.258 54.666 304.57 53.3555 304.57 51.7383V30.2617C304.57 28.6444 303.258 27.333 301.641 27.333Z" fill="#1CB0F6"/>
<path d="M256.249 0C261.101 0.000205179 265.034 3.93407 265.034 8.78613V35.1433C265.034 37.5694 263.067 39.5361 260.641 39.5361H245.999C244.382 39.5361 243.07 40.8474 243.07 42.4648C243.07 44.0821 244.382 45.3936 245.999 45.3936H260.641C263.067 45.3936 265.034 47.3603 265.034 49.7864V73.2139C265.034 78.0659 261.101 81.9998 256.249 82H209.392C205.348 81.9999 202.071 78.722 202.07 74.6787V27.8213C202.07 12.4561 214.526 1.17694e-05 229.892 0H256.249Z" fill="#1CB0F6"/>
<path d="M46.5602 2.6255C44.5062 0.969054 41.5548 0.985131 39.541 2.6932C26.4818 13.7697 18.0781 22.8355 10.1401 34.9063H48.8713C52.508 30.9814 56.5352 26.9737 61.1756 22.6366C63.6587 20.3158 63.558 16.3333 60.9137 14.2009L46.5602 2.6255Z" fill="#1CB0F6"/>
<path d="M28.2451 0C31.305 4.94355e-05 33.7852 2.48111 33.7852 5.54102V27.8213H45.3926C55.097 27.8213 62.9639 35.6882 62.9639 45.3926V64.4277C62.9637 74.132 55.0968 81.999 45.3926 81.999H5.54004C2.48051 81.9988 0.000315124 79.5185 0 76.459V5.54102C0 2.48123 2.48032 0.00025519 5.54004 0H28.2451ZM30.9502 46.8574C29.261 46.8575 27.8917 48.2268 27.8916 49.916V61.3701C27.8918 63.0592 29.2611 64.4287 30.9502 64.4287C32.6394 64.4287 34.0086 63.0592 34.0088 61.3701V49.916C34.0087 48.2268 32.6394 46.8574 30.9502 46.8574Z" fill="#1CB0F6"/>
</svg>
