<svg width="231" height="262" viewBox="0 0 231 262" fill="none" xmlns="http://www.w3.org/2000/svg">
    <circle cx="155.591" cy="219.712" r="27.5789" fill="#1453A3"/>
    <path d="M28.8587 104.589C31.1794 91.9304 42.2118 82.7368 55.0813 82.7368H111.943C125.73 82.7368 137.243 93.2492 138.493 106.98L149.957 232.924C151.378 248.537 139.085 262 123.407 262H31.9916C15.3426 262 2.7667 246.909 5.76897 230.533L28.8587 104.589Z" fill="#1CB0F6"/>
    <path d="M79.3762 143.965C84.3909 143.965 88.1414 139.324 84.051 136.423C81.2303 134.422 77.4048 133.298 73.4158 133.298C69.4269 133.298 65.6013 134.422 62.7807 136.423C58.6903 139.324 62.4407 143.965 67.4555 143.965H79.3762Z" fill="#FFAADE"/>
    <rect x="53.3193" y="95.1475" width="18.412" height="30.8525" rx="9.206" fill="#F7F7F7"/>
    <rect x="79.1953" y="95.1475" width="18.412" height="30.8525" rx="9.206" fill="#F7F7F7"/>
    <path d="M54.8125 106.422C54.8125 104.318 56.5187 102.612 58.6234 102.612H58.9636C61.0683 102.612 62.7744 104.318 62.7744 106.422V110.744C62.7744 112.848 61.0683 114.554 58.9636 114.554H58.6234C56.5187 114.554 54.8125 112.848 54.8125 110.744V106.422Z" fill="#4B4B4B"/>
    <path d="M80.688 106.422C80.688 104.318 82.3942 102.612 84.4989 102.612H84.8391C86.9437 102.612 88.6499 104.318 88.6499 106.422V110.744C88.6499 112.848 86.9437 114.554 84.8391 114.554H84.4989C82.3942 114.554 80.688 112.848 80.688 110.744V106.422Z" fill="#4B4B4B"/>
    <path d="M216.593 108.018C225.732 108.018 233.413 100.378 230.194 91.8253C230.017 91.3568 229.833 90.8908 229.641 90.4276C227.332 84.8509 223.946 79.7838 219.678 75.5155C215.409 71.2473 210.342 67.8616 204.765 65.5516C199.189 63.2417 193.212 62.0527 187.175 62.0527C181.139 62.0527 175.162 63.2417 169.585 65.5516C164.009 67.8616 158.942 71.2473 154.673 75.5155C150.405 79.7838 147.019 84.8509 144.709 90.4276C144.518 90.8908 144.333 91.3568 144.157 91.8253C140.938 100.378 148.619 108.018 157.758 108.018H216.593Z" fill="#1453A3"/>
    <path d="M196.267 46.3638C203.931 41.3864 206.212 30.796 198.854 25.3762C198.451 25.0793 198.043 24.7888 197.63 24.5049C192.655 21.0859 187.056 18.6803 181.152 17.4253C175.247 16.1703 169.154 16.0905 163.218 17.1905C157.283 18.2905 151.623 20.5488 146.561 23.8363C141.498 27.1239 137.133 31.3764 133.714 36.3509C130.295 41.3255 127.889 46.9248 126.634 52.8291C125.379 58.7334 125.3 64.8271 126.4 70.7622C126.491 71.2552 126.59 71.7462 126.698 72.2352C128.656 81.1618 139.259 83.3851 146.923 78.4077L196.267 46.3638Z" fill="#1453A3"/>
    <path d="M31.2559 231.203C31.2559 208.61 49.5713 190.295 72.1646 190.295C94.7579 190.295 113.073 208.61 113.073 231.203V243.614C113.073 253.768 104.842 262 94.6874 262H49.6418C39.4875 262 31.2559 253.768 31.2559 243.614V231.203Z" fill="#F7F7F7" fill-opacity="0.968627"/>
    <path d="M54.1686 165.168C53.4455 163.069 54.5617 160.78 56.6616 160.057L91.8596 147.937C93.9595 147.214 96.248 148.33 96.971 150.43C101.041 162.25 94.7584 175.131 82.9389 179.201C71.1193 183.27 58.2384 176.988 54.1686 165.168Z" fill="#4B4B4B"/>
    <path fill-rule="evenodd" clip-rule="evenodd" d="M65.498 156.974L69.1801 178.836C69.5527 181.049 71.4684 182.669 73.7121 182.669H87.4273C89.6798 182.669 91.6004 181.036 91.9631 178.813L96.1622 153.077C96.5867 150.475 94.7483 148.096 92.2086 147.777L65.498 156.974Z" fill="#F0F0F0"/>
</svg>
