<svg width="279" height="277" viewBox="0 0 279 277" fill="none" xmlns="http://www.w3.org/2000/svg">
<circle cx="199.124" cy="232.291" r="29.1579" fill="#1453A3"/>
<path d="M65.1364 110.577C67.59 97.1936 79.254 87.4736 92.8603 87.4736H152.977C167.554 87.4736 179.726 98.5879 181.047 113.105L193.168 246.259C194.67 262.766 181.673 277 165.098 277H68.4486C50.8465 277 37.5506 261.045 40.7247 243.731L65.1364 110.577Z" fill="#1CB0F6"/>
<path d="M118.546 152.208C123.848 152.208 127.813 147.3 123.488 144.233C120.506 142.118 116.462 140.93 112.244 140.93C108.027 140.93 103.982 142.118 101 144.233C96.6756 147.3 100.641 152.208 105.943 152.208H118.546Z" fill="#FFAADE"/>
<rect x="90.9976" y="100.595" width="17.9807" height="30.1298" rx="8.99035" fill="#F7F7F7"/>
<rect x="116.268" y="100.595" width="17.9807" height="30.1298" rx="8.99035" fill="#F7F7F7"/>
<path d="M92.4556 111.606C92.4556 109.551 94.1218 107.884 96.1772 107.884H96.5094C98.5648 107.884 100.231 109.55 100.231 111.606V115.826C100.231 117.881 98.5648 119.547 96.5094 119.547H96.1772C94.1218 119.547 92.4556 117.881 92.4556 115.826V111.606Z" fill="#4B4B4B"/>
<path d="M117.725 111.606C117.725 109.551 119.391 107.884 121.447 107.884H121.779C123.834 107.884 125.501 109.55 125.501 111.606V115.826C125.501 117.881 123.834 119.547 121.779 119.547H121.447C119.391 119.547 117.725 117.881 117.725 115.826V111.606Z" fill="#4B4B4B"/>
<path d="M263.619 114.202C273.281 114.202 281.402 106.125 277.999 97.0823C277.812 96.587 277.618 96.0944 277.415 95.6046C274.973 89.7086 271.393 84.3514 266.88 79.8388C262.368 75.3262 257.011 71.7466 251.115 69.3044C245.219 66.8622 238.899 65.6052 232.517 65.6052C226.136 65.6052 219.816 66.8622 213.92 69.3044C208.024 71.7466 202.667 75.3262 198.155 79.8388C193.642 84.3514 190.062 89.7086 187.62 95.6046C187.417 96.0944 187.223 96.587 187.036 97.0823C183.632 106.125 191.754 114.202 201.416 114.202H263.619Z" fill="#1453A3"/>
<path d="M242.129 49.0181C250.232 43.7558 252.644 32.559 244.865 26.829C244.438 26.5151 244.007 26.2079 243.57 25.9077C238.311 22.293 232.391 19.7497 226.148 18.4228C219.906 17.096 213.463 17.0116 207.189 18.1746C200.914 19.3376 194.929 21.7251 189.577 25.2009C184.225 28.6767 179.61 33.1726 175.995 38.432C172.38 43.6914 169.837 49.6113 168.51 55.8536C167.183 62.0959 167.099 68.5384 168.262 74.8134C168.358 75.3346 168.463 75.8537 168.577 76.3707C170.647 85.8084 181.857 88.1589 189.96 82.8966L242.129 49.0181Z" fill="#1453A3"/>
<path d="M67.6714 244.44C67.6714 220.554 87.0355 201.189 110.922 201.189C134.809 201.189 154.173 220.554 154.173 244.44V257.561C154.173 268.297 145.47 277 134.735 277H87.11C76.3744 277 67.6714 268.297 67.6714 257.561V244.44Z" fill="#F7F7F7" fill-opacity="0.968627"/>
<path d="M91.8954 174.624C91.1309 172.404 92.311 169.985 94.5312 169.22L131.744 156.407C133.964 155.642 136.384 156.822 137.148 159.043C141.451 171.539 134.809 185.157 122.313 189.46C109.817 193.763 96.1982 187.121 91.8954 174.624Z" fill="#4B4B4B"/>
<path fill-rule="evenodd" clip-rule="evenodd" d="M103.874 165.961L107.766 189.075C108.16 191.414 110.186 193.127 112.558 193.127H127.058C129.44 193.127 131.47 191.401 131.854 189.05L136.293 161.84C136.742 159.09 134.798 156.575 132.113 156.237L103.874 165.961Z" fill="#F0F0F0"/>
<path d="M0 92.7571C0 91.7667 0.802842 90.9639 1.7932 90.9639H219.487C220.478 90.9639 221.28 91.7667 221.28 92.7571V95.6262C221.28 101.568 216.463 106.385 210.521 106.385H10.7592C4.81706 106.385 0 101.568 0 95.6262V92.7571Z" fill="#FF7878"/>
<path d="M212.313 91.6812C212.313 100.065 210.903 108.366 208.164 116.111C205.424 123.856 201.409 130.893 196.347 136.821C191.285 142.749 185.275 147.452 178.662 150.66C172.048 153.868 164.959 155.519 157.8 155.519C150.642 155.519 143.553 153.868 136.939 150.66C130.325 147.452 124.316 142.749 119.254 136.821C114.192 130.893 110.176 123.856 107.437 116.111C104.697 108.366 103.287 100.065 103.287 91.6812H212.313Z" fill="#FF7878"/>
<path d="M118.351 91.6812C118.351 100.065 116.941 108.366 114.201 116.111C111.461 123.856 107.446 130.893 102.384 136.821C97.322 142.749 91.3125 147.452 84.6987 150.66C78.0848 153.868 70.9962 155.519 63.8374 155.519C56.6786 155.519 49.5899 153.868 42.9761 150.66C36.3623 147.452 30.3528 142.749 25.2908 136.821C20.2287 130.893 16.2133 123.856 13.4738 116.111C10.7342 108.366 9.32422 100.065 9.32422 91.6812H118.351Z" fill="#FF7878"/>
<path d="M93.6452 105.31C96.022 105.31 97.9687 107.24 97.7587 109.608C97.405 113.596 96.5599 117.512 95.2446 121.23C93.4593 126.278 90.8425 130.864 87.5437 134.727C84.2448 138.59 80.3285 141.654 76.0184 143.745C71.7082 145.836 67.0887 146.912 62.4234 146.912C57.7581 146.912 53.1385 145.836 48.8284 143.745C44.5182 141.654 40.602 138.59 37.3031 134.727C34.0043 130.864 31.3875 126.278 29.6022 121.23C28.2869 117.512 27.4418 113.596 27.0881 109.608C26.8781 107.24 28.8248 105.31 31.2016 105.31H93.6452Z" fill="#4B4B4B"/>
<path d="M189.043 106.385C191.42 106.385 193.367 108.316 193.157 110.684C192.803 114.672 191.958 118.587 190.643 122.306C188.857 127.353 186.24 131.939 182.942 135.803C179.643 139.666 175.726 142.73 171.416 144.821C167.106 146.911 162.487 147.988 157.821 147.988C153.156 147.988 148.536 146.911 144.226 144.821C139.916 142.73 136 139.666 132.701 135.803C129.402 131.939 126.785 127.353 125 122.306C123.685 118.587 122.84 114.672 122.486 110.684C122.276 108.316 124.223 106.385 126.6 106.385H189.043Z" fill="#4B4B4B"/>
</svg>
